<svg xmlns="http://www.w3.org/2000/svg" viewBox="0 0 512 512">
  <rect width="512" height="512" rx="112" fill="#020617"/>
  <path d="M256 72 416 136v120c0 102-65 157-160 190C161 413 96 358 96 256V136Z" fill="#fbbf24"/>
  <path d="M256 116 374 163v90c0 75-44 116-118 146-74-30-118-71-118-146v-90Z" fill="#0f172a"/>
  <path d="M317 207c-16-22-36-33-62-33-48 0-82 36-82 83 0 48 34 82 83 82 28 0 50-11 66-35l-40-25c-7 10-15 15-27 15-21 0-35-16-35-38 0-21 14-37 35-37 11 0 20 5 27 15Z" fill="#fbbf24"/>
</svg>
